<?xml version="1.0" standalone="no"?>
<!DOCTYPE svg PUBLIC "-//W3C//DTD SVG 1.1//EN" "http://www.w3.org/Graphics/SVG/1.1/DTD/svg11.dtd">
<svg xmlns="http://www.w3.org/2000/svg">
<metadata>Copyright (C) 2015 by original authors @ fontello.com</metadata>
<defs>
<font id="fontello" horiz-adv-x="1000" >
<font-face font-family="fontello" font-weight="400" font-stretch="normal" units-per-em="1000" ascent="850" descent="-150" />
<missing-glyph horiz-adv-x="1000" />
<glyph glyph-name="print" unicode="&#xe800;" d="m214-7h500v143h-500v-143z m0 357h500v214h-89q-22 0-38 16t-16 38v89h-357v-357z m643-36q0 15-10 25t-26 11-25-11-10-25 10-25 25-10 26 10 10 25z m72 0v-232q0-7-6-12t-12-6h-125v-89q0-22-16-38t-38-16h-536q-22 0-37 16t-16 38v89h-125q-7 0-13 6t-5 12v232q0 44 32 76t75 31h36v304q0 22 16 38t37 16h375q23 0 50-12t42-26l85-85q15-16 27-43t11-49v-143h35q45 0 76-31t32-76z" horiz-adv-x="928.6" />
<glyph glyph-name="print-1" unicode="&#xe801;" d="m866 564c40 0 75-35 75-78l0-366c0-42-35-77-75-77l-76 0 34-153-691 0 27 153-82 0c-45 0-78 35-78 77l0 366c0 43 33 78 78 78l96 0 0 117 34 0 0 129 527 0 0-129 34 0 0-117 97 0z m-623 199l0-292 457 0 0 292-457 0z m-113-389c30 0 55 24 55 54 0 28-25 53-55 53-29 0-54-25-54-53 0-30 25-54 54-54z m63-438l567 0-47 242-484 0z m252 113l-139 0 0 35 139 0 0-35z m198 0l-139 0 0 35 139 0 0-35z" horiz-adv-x="941" />
<glyph glyph-name="cancel2" unicode="&#xe802;" d="m450 190q20-10 20-40t-20-40q-20-20-40-20t-40 20l-140 150-130-150q-20-20-40-20t-40 20q-20 20-20 40t20 40l130 160-130 160q-20 20-20 40t20 40q10 20 40 20t40-20l130-150 140 150q10 20 40 20t40-20q20-10 20-40t-20-40l-140-160z" horiz-adv-x="470" />
<glyph glyph-name="check" unicode="&#xe803;" d="m250 0q-40 0-60 30l-180 230q-10 30-10 60t30 40 50 20 40-30l120-160 300 480q10 20 40 30t50-10q30-20 30-40t0-60l-350-560q-20-30-60-30z" horiz-adv-x="667" />
<glyph glyph-name="ok1" unicode="&#xe804;" d="m630 680q30-20 40-70t0-80l-260-470q-30-50-100-50-40 0-70 30l-210 210q-30 30-30 70t30 80 80 30 70-30l110-110 190 340q20 40 70 50t80 0z" horiz-adv-x="679" />
<glyph glyph-name="cancel-1" unicode="&#xe805;" d="m600 630q30-30 30-70t-30-80l-140-130 140-140q30-30 30-70t-30-70q-30-30-80-30t-70 30l-140 130-130-130q-30-30-70-30t-80 30q-30 30-30 70t30 70l140 140-140 130q-30 40-30 80t30 70q30 30 80 30t70-30l130-130 140 130q30 30 70 30t80-30z" horiz-adv-x="628" />
<glyph glyph-name="save" unicode="&#xe806;" d="m880 590l-540-600-340 340 120 120 200-200 420 460z" horiz-adv-x="875" />
<glyph glyph-name="cancel" unicode="&#xe807;" d="m120 650l180-180 190 180 120-120-180-180 180-180-120-120-190 180-180-180-120 120 180 180-180 180z" horiz-adv-x="609" />
<glyph glyph-name="cancel-3" unicode="&#xe808;" d="m0 90q0 40 30 60l190 200-190 190q-30 30-30 60t30 60 60 30 60-30l190-190 200 190q20 30 60 30t60-30 30-60-30-60l-190-190 190-200q30-20 30-60t-30-60q-20-30-60-30t-60 30l-200 190-190-190q-30-30-60-30t-60 30q-30 20-30 60z" horiz-adv-x="687" />
<glyph glyph-name="ok-2" unicode="&#xe809;" d="m0 340q0-40 20-60l250-240q20-20 60-20 40 0 60 20l510 490q20 30 20 60t-20 60q-30 30-70 30t-60-30l-440-430-190 180q-20 20-60 20t-60-20q-20-30-20-60z" horiz-adv-x="920" />
<glyph glyph-name="ok-3" unicode="&#xe80a;" d="m0 260l160 160 170-160 510 510 160-170-510-510-160-160-160 170z" horiz-adv-x="1000" />
<glyph glyph-name="cancel-4" unicode="&#xe80b;" d="m0 70l280 280-280 280 220 220 280-280 280 280 220-220-280-280 280-280-220-220-280 280-280-280z" horiz-adv-x="1000" />
<glyph glyph-name="ok-4" unicode="&#xe80c;" d="m1180 780q-250-220-600-750l-120-180q-140 180-460 500l110 110 280-250q150 150 280 270t210 190 130 110 80 60l20 10q0 0 10 0t20-20 40-50z" horiz-adv-x="1179" />
<glyph glyph-name="cancel-5" unicode="&#xe80d;" d="m650 350l350-350-150-150-350 350-350-350-150 150 350 350-350 350 150 150 350-350 350 350 150-150z" horiz-adv-x="1000" />
<glyph glyph-name="ok-5" unicode="&#xe80e;" d="m350-10l-330 330 160 160 170-170 400 400 160-160z" horiz-adv-x="928" />
<glyph glyph-name="cancel-6" unicode="&#xe80f;" d="m800 120l-160-160-230 230-240-230-150 160 230 230-230 230 150 160 240-230 230 230 160-160-230-230z" horiz-adv-x="817" />
<glyph glyph-name="ok-6" unicode="&#xe810;" d="m930 530q0-20-10-30l-410-410-70-70q-20-20-40-20t-40 20l-70 70-210 200q-10 20-10 40t10 40l80 80q10 10 40 10t30-10l170-170 370 370q10 10 30 10t40-10l80-80q10-10 10-40z" horiz-adv-x="1000" />
<glyph glyph-name="cancel-7" unicode="&#xe811;" d="m720 110q0-20-10-40l-80-70q-10-20-40-20t-30 20l-170 160-160-160q-20-20-40-20t-40 20l-70 70q-20 20-20 40t20 40l160 160-160 170q-20 10-20 40t20 30l70 80q20 20 40 20t40-20l160-160 170 160q10 20 30 20t40-20l80-80q10-10 10-30t-10-40l-170-170 170-160q10-20 10-40z" horiz-adv-x="786" />
<glyph glyph-name="trash" unicode="&#xe812;" d="m290 80v390q0 10-10 20t-10 0h-40q-10 0-10 0t-10-20v-390q0-10 10-10t10-10h40q10 0 10 10t10 10z m140 0v390q0 10-10 20t-10 0h-30q-10 0-20 0t0-20v-390q0-10 0-10t20-10h30q10 0 10 10t10 10z m140 0v390q0 10 0 20t-20 0h-30q-10 0-10 0t-10-20v-390q0-10 10-10t10-10h30q10 0 20 10t0 10z m-300 560h250l-30 60q0 10-10 10h-180q0 0 0-10z m520-20v-40q0-10-10-10t-10-10h-60v-520q0-50-20-80t-60-40h-470q-40 0-60 30t-30 80v530h-50q-10 0-10 10t-10 10v40q0 10 10 10t10 10h170l40 90q10 20 30 30t40 20h180q20 0 50-20t30-30l40-90h170q10 0 10-10t10-10z" horiz-adv-x="786" />
<glyph glyph-name="pencil" unicode="&#xe813;" d="m200-10l50 50-130 130-50-50v-60h70v-70h60z m290 520q0 10-10 10 0 0-10 0l-300-300q0-10 0-10 0-20 10-20 0 0 10 10l300 300q0 10 0 10z m-30 110l240-230-470-470h-230v230z m390-60q0-30-30-50l-90-90-230 230 90 100q20 20 50 20 30 0 50-20l130-130q30-30 30-60z" horiz-adv-x="857" />
<glyph glyph-name="pencil-neg" unicode="&#xe814;" d="m850 730q60-60 60-160t-60-150l-520-520-310 0 0 320 510 510q70 70 160 70t160-70z m-560-720q30 40 30 80t-30 80-80 40-80-40l0-160 160 0z m470 480q40 40 40 80t-40 80-70 30-80-30z" horiz-adv-x="928" />
<glyph glyph-name="trash-1" unicode="&#xe815;" d="m690 680l220 0 0-110-110 0 0-500q0-70-50-120t-120-50l-330 0q-70 0-120 50t-50 120l0 500-110 0 0 110 220 0q0 50 30 80t80 40l230 0q40 0 80-40t30-80z m-340-550q30 0 40 10t20 40-20 40-40 20-40-20-10-40q0-20 10-40t40-10z m0 220q30 0 40 20t20 40-20 40-40 10-40-10-10-40q0-30 10-40t40-20z m230-220q20 0 40 10t10 40-10 40-40 20-40-20-20-40q0-20 20-40t40-10z m0 220q20 0 40 20t10 40-10 40-40 10-40-10-20-40q0-30 20-40t40-20z" horiz-adv-x="928" />
<glyph glyph-name="trash-empty" unicode="&#xe816;" d="m910 680l0-110-110 0 0-500q0-70-50-120t-120-50l-330 0q-70 0-120 50t-50 120l0 500-110 0 0 110 220 0q0 50 30 80t80 40l230 0q40 0 80-40t30-80l220 0z m-220-610l0 500-450 0 0-500q0-20 20-40t40-10l330 0q30 0 40 10t20 40z m-390 110q0 60 50 60 60 0 60-60 0-50-60-50-50 0-50 50z m0 230q0 50 50 50 60 0 60-50 0-60-60-60-50 0-50 60z m220-230q0 60 60 60 50 0 50-60 0-50-50-50-60 0-60 50z m0 230q0 50 60 50 50 0 50-50 0-60-50-60-60 0-60 60z" horiz-adv-x="928" />
<glyph glyph-name="pencil-1" unicode="&#xe817;" d="m850 730q60-60 60-160t-60-150l-520-520-310 0 0 320 510 510q70 70 160 70t160-70z m-560-710l480 470-160 160-480-470q40 30 80 30t80-40q30-30 30-80t-30-70l0 0z" horiz-adv-x="928" />
<glyph glyph-name="trash-empty-1" unicode="&#xe818;" d="m290 440v-320q0-10-10-20t-10 0h-40q-10 0-10 0t-10 20v320q0 10 10 10t10 10h40q10 0 10-10t10-10z m140 0v-320q0-10-10-20t-10 0h-30q-10 0-20 0t0 20v320q0 10 0 10t20 10h30q10 0 10-10t10-10z m140 0v-320q0-10 0-20t-20 0h-30q-10 0-10 0t-10 20v320q0 10 10 10t10 10h30q10 0 20-10t0-10z m70-400v520h-500v-520q0-20 10-30t0-10 10-10h470q0 0 0 10t10 10 0 30z m-370 600h250l-30 60q0 10-10 10h-180q0 0 0-10z m520-20v-40q0-10-10-10t-10-10h-60v-520q0-50-20-80t-60-40h-470q-40 0-60 30t-30 80v530h-50q-10 0-10 10t-10 10v40q0 10 10 10t10 10h170l40 90q10 20 30 30t40 20h180q20 0 50-20t30-30l40-90h170q10 0 10-10t10-10z" horiz-adv-x="786" />
<glyph glyph-name="pencil-2" unicode="&#xe819;" d="m940 610q20-30 20-60t-20-50l-570-580q-20-20-60-30t-70-20l-240 0 0 230q0 40 20 80t40 60l570 570q20 20 50 20t60-20z m-800-430l70-60 430 430-60 60z m100-210q10 0 30 10-10 10-30 30t-50 50-50 50l-30 30q-10-20-10-40l0-70 60-60 80 0z m70 40l430 440-60 60-430-430z m470 470l70 70-170 170-70-70z" horiz-adv-x="960" />
<glyph glyph-name="pencil-3" unicode="&#xe81a;" d="m800 730c50-50 40-120-10-160l-40-50s30 50-40 120c-70 70-130 40-130 40l50 50c50 40 120 40 170 0z m-90-250l-500-490-210-50 0 0 50 210 500 490c10 0 30 10 60 0l-530-520-10-50 60-60 60 10 20 20 0 60-40 40 480 480c10-10 10-10 20-20 70-70 40-120 40-120z" horiz-adv-x="830" />
<glyph glyph-name="trash-2" unicode="&#xe81b;" d="m770 740c20 0 40-20 40-50s-20-40-40-40l-10 0-130-690-440 0-130 690-10 0c-30 0-50 20-50 40s20 50 50 50l720 0z m-400-110l-20 20-110 0-20-20 80-80z m-190-260l20-120 60 60-70 70z m40 40l80-70 70 70-70 80z m180-30l-70-70 70-80 80 80z m40 30l70-70 80 70-80 80z m-40 40l80 70-80 80-70-80z m-210 150l-50-40 20-90 30-20 70 70z m110-330l-80-70 80-80 70 80z m100-110l-70-70 60-60 30 0 60 60z m110-40l80 80-80 70-70-70z m100 120l30 130-20 10-70-70z m50 240l10 70-50 50-70-80 70-70z m-70 150l-20 20-120 0-10-20 70-80z m-460-20l40 40-40 0z m100-490l20-90 70 0z m360 10l-100-100 80 0z m90 470l10 50-50 0z" horiz-adv-x="814" />
<glyph glyph-name="pencil-4" unicode="&#xe81c;" d="m0-140l70 340 270-270z m140 390l420 420 260-260-420-420z m530 490q0 40 30 70t70 30 60-20l130-130q30-30 30-70t-30-70-70-30-70 30l-130 130q-20 20-20 60z" horiz-adv-x="989" />
<glyph glyph-name="trash-3" unicode="&#xe81d;" d="m0 630l0 140 290 0 0 80 250 0 0-80 280 0 0-140-820 0z m40-780l0 680 740 0 0-680-740 0z" horiz-adv-x="824" />
<glyph glyph-name="plus" unicode="&#xe81e;" d="m550 400q30 0 30-50t-30-50l-210 0 0-210q0-30-50-30t-50 30l0 210-210 0q-30 0-30 50t30 50l210 0 0 210q0 30 50 30t50-30l0-210 210 0z" horiz-adv-x="580" />
<glyph glyph-name="email1" unicode="&#xe81f;" d="m1000 450v-440q0-40-30-60t-60-30h-820q-40 0-60 30t-30 60v440q20-20 60-40 200-140 270-200 40-20 60-30t50-30 60-10h0q30 0 60 10t50 30 60 30q90 70 270 200 40 20 60 40z m0 170q0-50-30-90t-70-70q-210-140-260-180 0 0-20-10t-30-20-30-20-30-20-30 0h0q-10 0-30 0t-30 20-30 20-30 20-20 10q-50 40-150 110t-110 70q-40 30-70 70t-30 80q0 40 20 70t70 30h820q40 0 60-30t30-60z" horiz-adv-x="1000" />
<glyph glyph-name="email2" unicode="&#xe820;" d="m580 310l260-270-790 0 260 260 130-120z m-520 350l760 0-380-360z m570-310l260 240 0-500z m-630-260l0 500 260-240z" horiz-adv-x="886" />
<glyph glyph-name="email" unicode="&#xe821;" d="m0 60l0 580q0 0 0 20l340-290-340-330q0 20 0 20z m50 640q0 0 10 0l920 0q0 0 10 0l-340-290-40-40-90-70-90 70-40 40z m0-700l340 330 130-110 130 110 340-330q-10 0-10 0l-920 0q-10 0-10 0z m650 370l330 290q10-10 10-20l0-580q0-10-10-20z" horiz-adv-x="1037" />
<glyph glyph-name="contacts" unicode="&#xe822;" d="m830 820q70 0 110-50t50-110l0-620q0-70-50-110t-110-50l-570 0q-60 0-110 50t-50 110l0 50-50 0q-20 0-30 20t-20 30 20 40 30 10l50 0 0 110-50 0q-20 0-30 10t-20 40 20 40 30 10l50 0 0 110-50 0q-20 0-30 10t-20 40 20 40 30 10l50 0 0 50q0 70 50 110t110 50l570 0z m-620-160l0-50 50 0 0 110q-20 0-40-20t-10-40z m0-150l0-110 50 0 0 110-50 0z m0-210l0-110 50 0 0 110-50 0z m0-260q0-20 10-40t40-10l0 100-50 0 0-50z m680 0l0 620q0 20-20 40t-40 20l-520 0 0-730 520 0q30 0 40 10t20 40z m-420 390q0 100 100 100 110 0 110-100 0-110-110-110-100 0-100 110z m100-150q60 0 100-20t30-50q0-20-30-30t-100-10q-60 0-90 10t-40 30q0 30 40 50t90 20z" horiz-adv-x="990" />
<glyph glyph-name="picture" unicode="&#xe823;" d="m360 530q0-50-30-80t-80-30-80 30-30 80 30 70 80 40 80-40 30-70z m570-220v-250h-790v110l180 180 90-90 290 290z m50 400h-890q-10 0-10-10t-10-10v-680q0-10 10-10t10-10h890q10 0 10 10t10 10v680q0 10-10 10t-10 10z m90-20v-680q0-40-20-60t-70-30h-890q-40 0-60 30t-30 60v680q0 40 30 60t60 30h890q40 0 70-30t20-60z" horiz-adv-x="1071" />
<glyph glyph-name="picture-1" unicode="&#xe824;" d="m0-70l0 840 1000 0 0-840-1000 0z m80 80l840 0 0 680-840 0 0-680z m90 80l0 60 150 190 100-80 190 290 220-230 0-230-660 0z m0 420q0 30 20 60t60 20q40 0 60-20t20-60q0-40-20-60t-60-30q-40 0-60 30t-20 60z" horiz-adv-x="1000" />
<glyph glyph-name="picture-2" unicode="&#xe825;" d="m1360 850v-1000h-1360v1000h1360z m-1240-880h1120v760h-1120v-760z m1000 560q0-30-20-60t-60-20-60 20-20 60 20 60 60 20 60-20 20-60z m40-470q10 0 0-10t0 0h-960q0 0 0 0v10q20 30 130 280t150 290q0 10 0 10t10 0l310-390 150 120h10l0 0q40-50 100-160t100-150z" horiz-adv-x="1360" />
<glyph glyph-name="picture-3" unicode="&#xe826;" d="m210 480q0 130 130 130t130-130-130-130-130 130z m520-80q40 0 80-60 50-90 80-250l-730 0 10 50q20 60 60 110t80 50q60 0 130-40 20-10 60-10 30 0 80 50 60 70 90 90 30 10 60 10z m-730 260q0 50 30 80t70 30l840 0q40 0 70-30t30-80l0-620q0-50-30-80t-70-30l-840 0q-40 0-70 30t-30 80l0 620z m940-620l0 620-840 0 0-620 840 0z" horiz-adv-x="1041" />
<glyph glyph-name="camera-1" unicode="&#xe827;" d="m500 450q60 0 110-40t40-110-40-110-110-40-110 40-40 110 40 110 110 40z m400 150q40 0 70-30t30-70l0-450q0-40-30-70t-70-30l-800 0q-40 0-70 30t-30 70l0 450q0 40 30 70t70 30l120 0q30 0 40 30l30 90q10 30 40 30l340 0q30 0 40-30l30-90q10-30 40-30l120 0z m-400-550q100 0 180 70t70 180-70 180-180 70-180-70-70-180 70-180 180-70z m370 380q10 0 20 10t10 30-10 20-20 10q-40 0-40-30 0-20 10-30t30-10z" horiz-adv-x="1000" />
<glyph glyph-name="camera" unicode="&#xe828;" d="m540 480q60 0 110-50t50-120-50-110-110-50-120 50-40 110 40 120 120 50z m390 230q60 0 100-40t40-110v-500q0-50-40-100t-100-40h-790q-60 0-100 40t-40 100v500q0 60 40 110t100 40h130l30 70q10 30 40 50t50 20h290q30 0 60-20t40-50l20-70h130z m-390-650q100 0 170 80t80 170-80 180-170 70-180-70-70-180 70-170 180-80z" horiz-adv-x="1071" />
<glyph glyph-name="home" unicode="&#xe829;" d="m520 820q320-280 500-430 20-20 20-40 0-20-10-40t-40-10l-100 0 0-370q0-20-20-30t-40-20l-150 0q-20 0-40 20t-10 30l0 210-210 0 0-210q0-20-20-30t-40-20l-150 0q-20 0-40 20t-10 30l0 370-110 0q-20 0-30 10t-20 40 20 40z" horiz-adv-x="1041" />
<glyph glyph-name="exchange" unicode="&#xe82a;" d="m910 130l-670 0 0-110-220 160 220 170 0-110 670 0 0-110z m-890 330l0 110 670 0 0 110 220-160-220-170 0 110-670 0z" horiz-adv-x="928" />
<glyph glyph-name="chart-bar" unicode="&#xe82b;" d="m360 350v-290h-150v290h150z m210 290v-580h-140v580h140z m570-650v-70h-1140v860h70v-790h1070z m-350 500v-430h-150v430h150z m210 220v-650h-140v650h140z" horiz-adv-x="1143" />
<glyph glyph-name="plane" unicode="&#xe82c;" d="m810 270q30-20 20-60t-50-40q0 0-10 10l-270 70 0-230 80-60q30-30 20-60t-50-40q-10 0-20 10l-110 40-110-40q-20-10-40-10t-30 30q-10 10 0 30t10 40l90 60 0 230-270-70q-20-10-40 0t-30 30 0 30 30 30l310 180 0 310q0 30 20 60t60 20 50-20 30-60l0-310z m-390 480q10 0 20 10t0 10q0 30-20 30-30 0-30-30 0-20 30-20z" horiz-adv-x="834" />
<glyph glyph-name="menu-1" unicode="&#xe82d;" d="m860 100v-70q0-20-10-30t-30-10h-780q-20 0-30 10t-10 30v70q0 10 10 30t30 10h780q20 0 30-10t10-30z m0 290v-80q0-10-10-20t-30-10h-780q-20 0-30 10t-10 20v80q0 10 10 20t30 10h780q20 0 30-10t10-20z m0 280v-70q0-10-10-30t-30-10h-780q-20 0-30 10t-10 30v70q0 20 10 30t30 10h780q20 0 30-10t10-30z" horiz-adv-x="857" />
<glyph glyph-name="flight" unicode="&#xe82e;" d="m770 760q20-30 0-80t-60-100l-90-90 90-390q10-10 0-10l-70-60q-10 0-10 0-10 0-10 0-10 0-10 10l-160 280-140-140 30-110q0-10-10-20l-50-50q0-10-10-10h0q-10 0-20 10l-100 140-140 110q-10 0-10 10 0 10 0 10l60 60q0 0 10 0 0 0 10 0l100-30 150 150-280 150q-10 10-10 20-10 0 0 10l70 70q10 10 20 10l370-90 90 90q40 40 100 60t80-10z" horiz-adv-x="786" />
<glyph glyph-name="globe" unicode="&#xe82f;" d="m430 780q120 0 210-60t160-150 60-220-60-220-160-150-210-60-220 60-150 150-60 220 60 220 150 150 220 60z m150-290q0 0 0-10t-10 0q0 0 0 0t0 10 10 0q0 0 10 10 10 0 30 10 20 0 30-10-10 0 0 10t10 0q0 0 10 10t10 0l0 10q-10 0-10 10t-10 10q0 0 0-10 0 10 0 10t-10 0 0 0q-10 0-10 0t-10 10 0 10q0 0 0 0t-10 10q0 0 0 0t0 10 0 0-10 0 0 0-10-10 0 0q0 0 0 0t0 0-10 0 0 0q0 0 0-10t-10 0q10 10 0 10-10 0-10 0 10 0 10 10t-10 10h0q0 0 0 0t-10 10-10 0q0 0-20 0t-20 0q0 0 0 0t0-10 10-10q0 0-10 0t0-10q0 0 10-10t0-10q0-10-10-10t0-10q-10 0-10-10t10-10q0 0 0 0t0 0 0 0-10 0l0-10q-10 0-10 10t-10 10q0 20-10 20-10 0-10 0-10 10-30 10-10 10-30 0 0 10 0 10 0 10-10 10 0 0 0 10t0 10q10 0 10 10 0 0 0 0t10 10 0 10q20-10 30 0 0 0 0 10t10 10q0 0 10 0t10 0 0 0q10 0 10 0t0 20q0-10 0 0 0 10 0 10-10 0-20 0 0-10 0-10 0 0 0 0t-10-10-10 0q0 0-10 10t0 0q0 0-10 0 0 0-10 0t-10 10q10 10 0 10-10 10-10 10t-20-10q0 0 0 0t0-10 10 0 10 0 0 0q10-10 10-10-10 0-10 0t-10-10 0 0q0 0 0-10t0 0q0 0-10 10t0 10q0-10-10-10l-10 0q0 0-10 0t-10 0-10 10q0 0 0 10 0 0 10 0-10 0-10 0t-10 10q-20-10-50-20 0-10 10 0 0 0 10 0t0 0q20 10 20 10l10 0q10-10 10-10-10 0-20 0-10-10-10-10 0-10 0-10 0 0 0 0t-10 10-10 0q-10 0-10 0-80-40-130-120 0 0 0-10 0 0 10 0t0-10 0 10q10-10 10-20 0 10 20-10 10-10 10-10 0-10 0-10 0 0-10 0t0 0q-10 0 0-10t0 0q0 0 0-10t0-20-10-10l10 0q-10-10 0-20t10-10q-10-10 10-30 10 0 10 0 0-10 0-10t10 0 10-10q0 0 0-10t10-20q0 0 10-10t0-10q0 0 0 0t0 0q0 0 10-10t10-10q0 0 0 0t0-10 0 0q0 10-10 40-10 10-10 10 0 10 0 10t-10 10q10 0 10 0t0 0 10-10 0 0q0 0 0-10t10-10 10-10 0-10q10 0 10-10t0 0q10 0 10-10t10-10q0 0 10-10t0-20q0 0 0-10t10 0l10-10t10 0q0 0 10-10t10 0q0 0 10 0t10 0 0 0q10 0 20-10t10-10q20-10 30-10 0 0 0 0t10-10 0-10 0 0q10-10 10-10t10-10q10 0 10 10 0-10 0-20t10 0q10 0 10 20-20-10-30 10 0 0 0 0t0 0 0 10 0 0 0 10q10 0 10 0t-10 0 0 10q0 10 0 10t-10 10q0 0-10 0t-10 0q0 0 0 0t0-10q-10 0-10 10 0 0 0 10t10 10q0 0 0 0t0 10 0 10 0 0-10 10q-10 0-10-20 0 0 0 0t-10-10 0 0q-10 0-10 0t-20 0q-10 0-10 20t-10 20q0 0 10 10t0 20-10 10q10 0 10 0t0 10q10 0 10 0t0 0 0 0 0 10q0 0 0 0 0 0 0 0 0 0 10 0t20 0q10-10 10 0 0 0 0 10t0 0q0-10 20 0 0 0 10 0t10-10q0 0 0 0t0 0 10 0 0 0q10-10 10-10 0-20 10-30 0 0 0 0t10 10 0 0-10 10l0 10v10l0 0q0 0-10 10t0 10 10 10q0 0 10 0t10 0 0 10q10 10 10 20 10 0 10 0 0 0-10 0t0 10 0 0q0 0 0 10 0 0 0 0t10 10q0-10 10 0 0 0 0 10 0 0 10 0t10 10q10 0 10 0t0 10 0 0q0 10 10 10t0 0l10 10q0 0 0 0 10 0 20 0 10 10 0 20 0 0 0 0t-10 0q0 0 0 0t10 10q10 0 0 0-10 10-30 0z m-90-490q120 20 200 100-10 10-10 10t-10 0q-10 0-10 0 0 10 0 10t-10 10 0 0-10 0q0 0 0 10t-10 0 0 0-10 0 0 0l0 0q-10 0-10 0t0 0 0 0 0 0q-10 10-20 10-10 0-10 0t0 10-10 0-10-10q0 0 0-10t0 0q0 0 0 10t0 10q0 0-10 0t0 0-10-10 0 0-10 0 0-10q0 0-10-10t0 0q0 0-10 0t0 10q0-10 0-20t0-30q10-10 0-20-20-20-20-20 0-20 10-20 0 0-10-10t0-10q0-10 0-10z" horiz-adv-x="857" />
<glyph glyph-name="globe-alt" unicode="&#xe830;" d="m0 350q0 210 150 350t350 150 350-150 150-350-150-350-350-150-350 150-150 350z m130 60q20-30 40-50t70-30 50-20q10 0 20-10t10-10q0-10 0-20 0-20 0-40t10-20 20-30 10-30q10-10 0-10 0-20-10-70t0-80q40-20 70-20 10 10 10 20 10 0 10 20t10 30q0 10 10 20t10 20q0 10 10 10 20 20 40 30t20 30q0 30 0 70 0 10 0 20t-20 10q-20 10-50 40t-40 30q-20 10-40 10t-30 0q-10-10-30-10 0 10-10 10-10 10 0 10 0 10 0 10t-20 0q-10 30-10 40 20-10 30-20t20 0 10-10q10 10 10 20t0 50q0 0 0 0 10 20 10 30t10 0q0 0 0 10 10 0 20 0 10 0 10 0t10 10q10 0 0 10l0 0q20 10 40 40-10 20-40 30-10 10-20 0 0 0-10 10t-10 10-20 0q-10 10-20 20t-20 30q-10 10-20 10-10 0-20 0l-10 0q-60-40-100-100t-40-130z m250 290q30-10 60-20t70-10q20 0 50 10 30 20 80 10 0 0 10 0-30 20-70 20t-80 10q-60 0-120-20z m160-380q10-20 20-40 20-10 30-10t30 0 20 0q10-10 10-10 0-10 0-20 0 0 0-20t10-20q0-50 0-60 10-10 10-40t20-30q0-10 10-10 20 0 50 20 20 30 20 60 0 10 10 20t10 20q0 10 0 20 10 20 10 30l0 20q0 0 10 10t10 10q10 20 10 30 0 0-10 10l-20 0q20 30 40 20l30 10 0 10q0 90-40 160t-90 130q-110-20-130-50-10-20-20-30 0-10 0-20t-10-20 0-10-10-20q-10 0-10-10t10-20q10-10 10-20 30 0 30 10l70 0q30 30 60 0 10-10 20-30l-30-20q-20 10-30 20t-30 10-30 0-30-10-30 0l-10-10t0 0-10-10q0 0 0-10l0 0q-20-30-20-70z" horiz-adv-x="1000" />
<glyph glyph-name="blind" unicode="&#xe831;" d="m10-90q-20 20 0 50l130 160 50 190 0 150-30-40-10-110q0-20-20-30t-40 0-10 40l10 120q0 10 10 10l100 140q20 40 60 40t60-20l110-140 120-30q20 0 20-30t-20-30l360-490q0-10-10-20t-10 10l-380 500-110 20q-10 0-20 10l-40 60 0-160 110-130q10-10 10-20l50-240q10-30-10-50t-50-10-40 40l-40 230-100 110-40-150q0-10 0-20l-140-170q-20-20-50-20t-30 30z m170 830q0 40 30 70t70 30 70-30 30-70-30-70-70-30-70 30-30 70z" horiz-adv-x="911" />
<glyph glyph-name="download" unicode="&#xe832;" d="m970 200q20-10 20-30t10-40l-30-160q0-20-20-30t-40-10l-820 0q-20 0-40 10t-20 30l-30 160q-10 40 30 70l160 110 100 0-170-130 180 0q10 0 10-10l40-110 300 0 40 110q10 10 10 10l180 0-170 130 100 0z m-210 320l-260-240-260 240 170 0 0 260 190 0 0-260 160 0z" horiz-adv-x="1000" />
<glyph glyph-name="download-1" unicode="&#xe833;" d="m710 100q0 10-10 30t-20 10-30-10-10-30 10-30 30-10 20 10 10 30z m150 0q0 10-10 30t-30 10-20-10-10-30 10-30 20-10 30 10 10 30z m70 130v-180q0-30-20-40t-40-20h-820q-20 0-30 20t-20 40v180q0 20 20 30t30 20h260l80-80q30-30 70-30t80 30l80 80h250q30 0 40-20t20-30z m-180 310q10-20-10-40l-250-250q-10-10-30-10t-20 10l-250 250q-20 20-10 40 10 20 30 20h150v250q0 20 10 30t20 10h150q10 0 20-10t10-30v-250h140q30 0 40-20z" horiz-adv-x="929" />
<glyph glyph-name="truck" unicode="&#xe834;" d="m0 320l0 340q0 40 30 70t60 30l470 0q40 0 70-30t30-70l0-60 120 0q50 0 80-40l120-190q20-20 20-50l0-190q0-40-30-70t-60-20l-40 0q-10-40-40-70t-80-30-80 30-40 70l-170 0q-10-40-40-70t-80-30-70 30-50 70l-30 0q-40 0-70 20t-30 70l0 100q-40 0-60 20t-30 70z m60 0q0-10 10-20t20-10l470 0q20 0 20 10t10 20l0 340q0 20-10 20t-20 10l-470 0q-10 0-20-10t-10-20l0-340z m100-190q0-10 10-20t20-10l30 0q10 40 50 70t70 20 80-20 40-70l170 0q10 40 40 70t80 20 80-20 40-70l40 0q10 0 20 10t10 20l0 190q0 10-10 20l-120 180q-10 20-30 20l-120 0 0-220q0-40-30-70t-70-20l-400 0 0-100z m120-60q0-30 20-50t40-10 50 10 20 50-20 40-50 20-40-20-20-40z m410 0q0-30 20-50t40-10 40 10 20 50-20 40-40 20-40-20-20-40z m0 220l0 190q0 10 10 20t20 10l30 0q20 0 30-20l90-140q0-10 0-20l0-40q0-20 0-20t-30-10l-120 0q-10 0-20 10t-10 20z m30 0l120 0 0 40-90 150-30 0 0-190z" horiz-adv-x="1000" />
<glyph glyph-name="truck-1" unicode="&#xe835;" d="m360 60q0 30-20 50t-50 30-50-30-30-50 30-50 50-20 50 20 20 50z m-220 290h220v140h-90q-10 0-10 0l-110-110q-10-10-10-10v-20z m720-290q0 30-20 50t-50 30-50-30-30-50 30-50 50-20 50 20 20 50z m140 610v-570q0-10 0-10t-10-20-10 0-10 0-10-10-20 0-10 0q0-50-40-100t-100-40-110 40-40 100h-210q0-50-40-100t-100-40-110 40-40 100h-30q0 0-20 0t-10 0-10 10-20 0 0 0-10 20 0 10q0 10 10 30t20 10v170q0 10 0 20t0 30 0 10 10 20 0 20 20 20l110 110q10 10 30 20t30 0h90v110q0 20 10 30t20 10h570q20 0 30-10t10-30z" horiz-adv-x="1000" />
<glyph glyph-name="home-1" unicode="&#xe836;" d="m890 340q10-20 10-30t-30-10l-80 0 0-310q0-20 0-20t-10-20-20 0l-210 0 0 310-200 0 0-310-200 0q-20 0-30 10t-10 30l0 310-80 0q-20 0-30 10t10 30l400 400q20 10 40 10t40-10z" horiz-adv-x="900" />
<glyph glyph-name="credit-card" unicode="&#xe837;" d="m50 650c-30 0-50-20-50-50l0-500c0-30 20-50 50-50l850 0c30 0 50 20 50 50l0 500c0 30-20 50-50 50z m-20-100l900 0 0-100-900 0z m20-300l150 0 0-100-150 0z m450-50l350 0 0-50-350 0z" horiz-adv-x="950" />
<glyph glyph-name="credit-card-1" unicode="&#xe838;" d="m980 780q40 0 70-30t20-60v-680q0-40-20-60t-70-30h-890q-40 0-60 30t-30 60v680q0 40 30 60t60 30h890z m-890-70q-10 0-10-10t-10-10v-130h930v130q0 10-10 10t-10 10h-890z m890-720q10 0 10 10t10 10v340h-930v-340q0-10 10-10t10-10h890z m-840 70v80h150v-80h-150z m220 0v80h210v-80h-210z" horiz-adv-x="1071" />
<glyph glyph-name="download-2" unicode="&#xe839;" d="m630 390v460h-210v-460h-170l270-260 260 260z m210 170h-130v-80h130c20 0 40-10 40-30v-310c0-40-30-80-60-80h-640c-30 0-50 40-50 80v310c0 20 10 30 30 30h130v80h-130c-70 0-120-40-120-110v-460c0-70 50-140 120-140h680c70 0 120 70 120 140v460c0 70-50 110-120 110z m40-570c0-20-20-60-40-60h-680c-20 0-30 40-30 60v70c0-20 30-40 50-40h640c20 0 60 20 60 40v-70z" horiz-adv-x="1000" />
<glyph glyph-name="users" unicode="&#xe83a;" d="m0 50q20 10 60 20t70 30 50 20q40 20 60 50t20 80q0 30-30 60-20 30-40 70-40 10-40 70 0 40 10 60 0 40-10 80 0 60 30 110t80 90 110 30q50 0 90-20t70-50 50-70 10-90q0-50-10-80 20-20 20-60 0-60-50-70-10-50-30-70-30-30-30-60 0-40 20-80t60-50q30-20 90-40t110-40 70-40q20-20 30-50t10-50l0-20h-880v170z m710 300q0 30 10 50-10 30-10 60 0 50 20 90t70 80 90 20 90-20 70-80 20-90q0-30-10-60 10-20 10-50 0-50-30-60-10-40-30-50-10-10-10-20t-10-20-10-20q0-30 20-60t50-40q20-10 40-20t60-20 50-20v-140h-250q0 10 0 10t-10 30 0 30-20 40-20 40q-20 20-50 40t-80 40q20 30 20 70 0 10 0 20t-10 20-10 20q-20 10-30 50-30 10-30 60z" horiz-adv-x="1201" />
<glyph glyph-name="flight-1" unicode="&#xe83b;" d="m270-120l120 400-180 0-110-100-100 0 80 170-80 170 100 0 110-100 180 0-120 400 100 0 220-400 280 0t30 0 50-10 30-30 20-30q0-30-40-50t-70-20l-40 0-260 0-220-400-100 0z" horiz-adv-x="1000" />
<glyph glyph-name="graph" unicode="&#xe83c;" d="m960-70h-80v50h-50v-50h-80v50h-40v-50h-80v50h-50v-50h-80v50h-40v-50h-80v50h-50v-50h-180l220 140 110 310 160-280 310 520-70 40-240-400-180 320-160-460-220-130v860h-80v-1000h1000v130h-40z m0 920h40v-40h-40z m-130 0h50v-40h-50z m-120 0h40v-40h-40z m-130 0h50v-40h-50z m-120 0h40v-40h-40z m-130 0h50v-40h-50z m-120 0h40v-40h-40z m-130 0h50v-40h-50z m880-120h40v-50h-40z m-130 0h50v-50h-50z m-120 0h40v-50h-40z m-130 0h50v-50h-50z m-120 0h40v-50h-40z m-130 0h50v-50h-50z m-120 0h40v-50h-40z m-130 0h50v-50h-50z m880-130h40v-40h-40z m-250 0h40v-40h-40z m-130 0h50v-40h-50z m-250 0h50v-40h-50z m-120 0h40v-40h-40z m-130 0h50v-40h-50z m880-120h40v-50h-40z m-380 0h50v-50h-50z m-250 0h50v-50h-50z m-120 0h40v-50h-40z m-130 0h50v-50h-50z m880-130h40v-40h-40z m-130 0h50v-40h-50z m-620 0h40v-40h-40z m-130 0h50v-40h-50z m880-120h40v-50h-40z m-130 0h50v-50h-50z m-370 0h40v-50h-40z m-250 0h40v-50h-40z m-130 0h50v-50h-50z m880-130h40v-40h-40z m-130 0h50v-40h-50z m-120 0h40v-40h-40z m-250 0h40v-40h-40z m-380 0h50v-40h-50z" horiz-adv-x="1000" />
<glyph glyph-name="bin" unicode="&#xe83d;" d="m130 540v-630c0-30 20-60 60-60h560c30 0 60 30 60 60v630h-680z m180-560h-60v430h60v-430z m130 0h-60v430h60v-430z m120 0h-60v430h60v-430z m130 0h-60v430h60v-430z m140 750h-200v70c0 30-30 50-50 50h-220c-30 0-50-20-50-50v-70h-200c-30 0-50-30-50-50v-80h820v80c0 20-30 50-50 50z m-270 0h-180v60h180v-60z" horiz-adv-x="1000" />
<glyph glyph-name="chart-line" unicode="&#xe83e;" d="m1140-10v-70h-1140v860h70v-790h1070z m-70 700v-240q0-20-10-20t-20 0l-70 70-350-350q-10-10-10-10t-20 10l-130 130-230-230-100 100 320 330q10 10 10 10t20-10l130-130 260 260-70 70q-10 10-10 20t20 10h240q10 0 20-10t0-10z" horiz-adv-x="1143" />
<glyph glyph-name="credit-card-2" unicode="&#xe83f;" d="m910 730h-820c-50 0-90-50-90-100v-560c0-50 40-90 90-90h820c50 0 90 40 90 90v560c0 50-40 100-90 100z m-820-70h820c10 0 30-10 30-30v-90h-880v90c0 20 20 30 30 30z m820-620h-820c-10 0-30 10-30 30v280h880v-280c0-20-20-30-30-30z m-780 190h60v-130h-60z m120 0h60v-130h-60z m130 0h60v-130h-60z" horiz-adv-x="1000" />
<glyph glyph-name="bars" unicode="&#xe840;" d="m960-70v50h-40v-50h-40v420h-210v-420h-40v840h-210v-840h-40v500h-50v50h-40v-50h-80v50h-40v-550h-90v920h-80v-1000h1000v80h-40z m-670 0h-40v420h40v-420z m250 0h-40v750h40v-750z m250 0h-40v340h40v-340z m-620 920h40v-40h-40z m120 0h40v-40h-40z m130 0h40v-40h-40z m120 0h40v-40h-40z m130 0h40v-40h-40z m120 0h40v-40h-40z m130 0h40v-40h-40z m0-120h40v-50h-40z m-130 0h40v-50h-40z m-120 0h40v-50h-40z m0-130h40v-40h-40z m120 0h40v-40h-40z m130 0h40v-40h-40z m0-130h40v-40h-40z m-130 10h40v-50h-40z m-120 0h40v-50h-40z m250-130h40v-40h-40z m0-120h40v-50h-40z m0-130h40v-40h-40z m-630 630h40v-50h-40z m0-130h40v-40h-40z m-120 0h40v-40h-40z m0 130h40v-50h-40z" horiz-adv-x="1000" />
<glyph glyph-name="aircraft-take-off" unicode="&#xe841;" d="m990 530c10-20 10-70-240-180l-250-120c-80-40-210-90-260-110-40-10-80 20-80 20s-110 100-140 120c-20 20-20 30 20 40 20 10 150-20 210-30 70 40 130 70 160 90-70 50-200 140-250 170-40 30 0 40 0 40 20 10 60 10 80 10 140-30 370-100 380-110 40 20 110 50 150 70 100 50 220 0 220-10z" horiz-adv-x="1000" />
<glyph glyph-name="aircraft" unicode="&#xe842;" d="m620-20c-10 50-90 240-110 310-60-30-120-70-180-90-20-70-50-190-70-200-30-30-40-30-50 10s-20 160-20 160-110 60-150 80-30 30 10 50c20 10 140 0 210 0 40 50 100 90 150 130-60 60-210 190-250 220-40 40 0 40 0 40 20 10 60 10 80 0 130-30 330-100 370-110 20 10 40 20 60 40 230 160 290 130 310 110s20-90-210-250c-30-20-50-30-60-40 0-50-10-260-20-390 0-20-20-60-30-80 0 0-20-40-40 10z" horiz-adv-x="1000" />
<glyph glyph-name="address-book" unicode="&#xe843;" d="m190 850v-1000h750v1000h-750z m370-250c70 0 130-60 130-120s-60-130-130-130-120 60-120 130 50 120 120 120v0z m190-500h-370v60c0 70 50 130 120 130v0h130c60 0 120-60 120-130v-60z m-690 690h100v-190h-100v190z m0-250h100v-190h-100v190z m0-250h100v-190h-100v190z m0-250h100v-190h-100v190z" horiz-adv-x="1000" />
<glyph glyph-name="stats-bars" unicode="&#xe844;" d="m0 40h1000v-130h-1000z m130 250h120v-190h-120z m180 250h130v-440h-130z m190-190h130v-250h-130z m190 380h120v-630h-120z" horiz-adv-x="1000" />
<glyph glyph-name="stack" unicode="&#xe845;" d="m1000 540l-500 250-500-250 500-250 500 250z m-500 160l330-160-330-170-330 170 330 160z m400-300l100-50-500-250-500 250 100 50 400-200z m0-190l100-50-500-250-500 250 100 50 400-200z" horiz-adv-x="1000" />
<glyph glyph-name="phone-1" unicode="&#xe846;" d="m690 230c-60-70-60-130-130-130s-120 60-180 130-130 120-130 180 60 70 130 130-130 250-190 250-190-190-190-190c0-120 130-380 250-500s380-250 500-250c0 0 190 130 190 190s-190 250-250 190z" horiz-adv-x="1000" />
<glyph glyph-name="printer" unicode="&#xe847;" d="m250 790h500v-130h-500v130z m690-190h-880c-30 0-60-30-60-60v-310c0-40 30-70 60-70h190v-250h500v250h190c30 0 60 30 60 70v310c0 30-30 60-60 60z m-810-190c-40 0-70 30-70 70s30 60 70 60 60-30 60-60-30-70-60-70z m560-430h-380v310h380v-310z" horiz-adv-x="1000" />
<glyph glyph-name="pencil-5" unicode="&#xe848;" d="m840 850c90 0 160-70 160-160 0-30-10-60-30-90l-60-60-220 220 60 60c30 20 60 30 90 30z m-780-720l-60-280 280 60 580 580-220 220-580-580z m640 360l-440-430-50 50 430 440 60-60z" horiz-adv-x="1000" />
<glyph glyph-name="menu" unicode="&#xe849;" d="m60 660h880v-180h-880z m0-250h880v-180h-880z m0-250h880v-180h-880z" horiz-adv-x="1000" />
<glyph glyph-name="image" unicode="&#xe84a;" d="m940 730c0 0 0-10 0-10v-740c0 0 0 0 0 0h-880c0 0 0 0 0 0v740c0 0 0 10 0 10h880z m0 60h-880c-30 0-60-30-60-60v-750c0-40 30-70 60-70h880c30 0 60 30 60 70v750c0 30-30 60-60 60v0z m-130-220c0-50-40-90-90-90s-90 40-90 90 40 90 90 90 90-40 90-90z m70-530h-750v120l210 380 250-310h70l220 180z" horiz-adv-x="1000" />
<glyph glyph-name="home3" unicode="&#xe84b;" d="m1000 260l-190 180v290h-120v-160l-190 190-500-500v-30h130v-320h310v190h120v-190h320v320h120z" horiz-adv-x="1000" />
<glyph glyph-name="file-text" unicode="&#xe84c;" d="m840 850h-750c-50 0-90-40-90-90v-820c0-50 40-90 90-90h750c60 0 100 40 100 90v820c0 50-40 90-100 90z m-30-870h-680v750h680v-750z m-560 430h440v-60h-440z m0-120h440v-60h-440z m0-130h440v-60h-440z m0 380h440v-60h-440z" horiz-adv-x="1000" />
<glyph glyph-name="earth" unicode="&#xe84d;" d="m500 850c-280 0-500-220-500-500s220-500 500-500 500 220 500 500-220 500-500 500z m0-940c-60 0-120 20-170 40l220 250c10 10 10 20 10 30v90c0 20-10 30-30 30-110 0-230 110-230 120 0 0-10 10-20 10h-120c-20 0-30-20-30-40v-180c0-20 0-30 10-30l110-60v-180c-110 80-190 210-190 360 0 70 20 130 40 190h120c10 0 20 0 20 10l130 120c0 10 10 20 10 20v80c30 10 80 20 120 20 70 0 130-20 190-50 0 0-10 0-10-10-40-30-50-80-50-130s10-100 50-130c40-40 80-60 130-60 10 0 10 0 10 0 20-50 40-180-10-360 0 0 0 0 0-10-80-80-190-130-310-130z" horiz-adv-x="1000" />
<glyph glyph-name="layers" unicode="&#xe84e;" d="m20 180l440-110 450 110 0-110-450-110-440 110 0 110z m0 230l440-120 450 120 0-120-450-110-440 110 0 120z m0 220l440 110 450-110 0-110-450-110-440 110 0 110z" horiz-adv-x="928" />
<glyph glyph-name="master" unicode="&#xe84f;" d="m910 800l0-670-220 0 0-230-670 0 0 670 220 0 0 230 670 0z m-330-780l0 110-340 0 0 220-110 0 0-330 450 0z m220 220l0 330-450 0 0-330 450 0z" horiz-adv-x="928" />
<glyph glyph-name="download2" unicode="&#xe850;" d="m500 290l250 250h-190v250h-120v-250h-190z m230 100l-70-70 250-90-410-160-410 160 250 90-70 70-270-100v-250l500-190 500 190v250z" horiz-adv-x="1000" />
<glyph glyph-name="left-open" unicode="&#xe851;" d="m653 682l-296-296 296-297q11-10 11-25t-11-25l-92-93q-11-10-25-10t-25 10l-414 415q-11 10-11 25t11 25l414 414q10 10 25 10t25-10l92-93q11-10 11-25t-11-25z" horiz-adv-x="714.3" />
<glyph glyph-name="right-open" unicode="&#xe852;" d="m618 361l-414-415q-11-10-25-10t-26 10l-92 93q-11 11-11 25t11 25l296 297-296 296q-11 11-11 25t11 25l92 93q11 10 26 10t25-10l414-414q10-11 10-25t-10-25z" horiz-adv-x="714.3" />
</font>
</defs>
</svg>
